<svg width="60" height="60" viewBox="0 0 60 60" fill="none" xmlns="http://www.w3.org/2000/svg">
<path d="M27.2031 35.2969C27.2031 36.1094 27.0625 36.8646 26.7812 37.5625C26.5 38.2604 26.1042 38.8646 25.5938 39.375C25.0938 39.8854 24.4948 40.2865 23.7969 40.5781C23.099 40.8594 22.3385 41 21.5156 41H6.625V36.9375H21.5156C22.0156 36.9375 22.4062 36.7969 22.6875 36.5156C22.9688 36.224 23.1094 35.8177 23.1094 35.2969V18.5938H27.2031V35.2969ZM52.4375 41H33.9062C33.6146 41 33.3438 40.9479 33.0938 40.8438C32.8438 40.7396 32.625 40.599 32.4375 40.4219C32.2604 40.2344 32.1198 40.0156 32.0156 39.7656C31.9115 39.5156 31.8594 39.2448 31.8594 38.9531V18.5938H35.9219V36.9375H52.4375V41Z" fill="white"/>
</svg>
